<svg viewBox="0 0 900 480" xmlns="http://www.w3.org/2000/svg" font-family="Space Mono,monospace">
  <defs>
    <linearGradient id="bg" x1="0" y1="0" x2="1" y2="1"><stop offset="0%" stop-color="#0A0C18"/><stop offset="100%" stop-color="#101828"/></linearGradient>
    <linearGradient id="rdl" x1="0" y1="0" x2="1" y2="0"><stop offset="0%" stop-color="#0066CC"/><stop offset="100%" stop-color="#00C2FF"/></linearGradient>
    <radialGradient id="orb"><stop offset="0%" stop-color="#0066CC" stop-opacity=".2"/><stop offset="100%" stop-color="#0066CC" stop-opacity="0"/></radialGradient>
    <filter id="bl"><feGaussianBlur stdDeviation="22"/></filter>
  </defs>
  <rect width="900" height="480" fill="url(#bg)"/>
  <g stroke="rgba(0,102,204,.07)" stroke-width="1">
    <line x1="0" y1="80" x2="900" y2="80"/><line x1="0" y1="160" x2="900" y2="160"/><line x1="0" y1="240" x2="900" y2="240"/><line x1="0" y1="320" x2="900" y2="320"/><line x1="0" y1="400" x2="900" y2="400"/>
    <line x1="150" y1="0" x2="150" y2="480"/><line x1="300" y1="0" x2="300" y2="480"/><line x1="450" y1="0" x2="450" y2="480"/><line x1="600" y1="0" x2="600" y2="480"/><line x1="750" y1="0" x2="750" y2="480"/>
  </g>
  <ellipse cx="640" cy="220" rx="280" ry="230" fill="url(#orb)" filter="url(#bl)"/>
  <!-- 2.5D stack diagram -->
  <g transform="translate(470,50)">
    <rect x="0" y="330" width="390" height="28" rx="4" fill="rgba(20,30,50,.8)" stroke="rgba(255,255,255,.1)" stroke-width="1"/>
    <text x="195" y="349" text-anchor="middle" fill="rgba(255,255,255,.28)" font-size="9">Organic Substrate (PCB)</text>
    <rect x="20" y="285" width="350" height="38" rx="3" fill="rgba(0,102,204,.12)" stroke="rgba(0,102,204,.35)" stroke-width="1.5"/>
    <text x="195" y="308" text-anchor="middle" fill="#4BAAF5" font-size="10" font-weight="700">Silicon Interposer (2.5D)</text>
    <g fill="rgba(0,194,255,.45)"><circle cx="58" cy="304" r="3"/><circle cx="88" cy="304" r="3"/><circle cx="118" cy="304" r="3"/><circle cx="270" cy="304" r="3"/><circle cx="300" cy="304" r="3"/><circle cx="330" cy="304" r="3"/></g>
    <text x="195" y="320" text-anchor="middle" fill="rgba(0,194,255,.38)" font-size="8">TSV &#xB7; RDL 0.4&#x2013;1.0 &#x3BC;m Cu lines</text>
    <rect x="20" y="198" width="170" height="80" rx="5" fill="rgba(0,66,187,.22)" stroke="rgba(0,102,204,.48)" stroke-width="1.5"/>
    <text x="105" y="236" text-anchor="middle" fill="white" font-size="11" font-weight="700">Logic Die</text>
    <text x="105" y="250" text-anchor="middle" fill="rgba(255,255,255,.38)" font-size="8">(GPU / CPU / AI)</text>
    <text x="105" y="264" text-anchor="middle" fill="rgba(0,194,255,.48)" font-size="8">sub-3nm GAA</text>
    <rect x="200" y="238" width="170" height="14" rx="2" fill="rgba(0,86,163,.38)" stroke="rgba(0,102,204,.38)" stroke-width="1"/>
    <rect x="200" y="220" width="170" height="14" rx="2" fill="rgba(0,86,163,.32)" stroke="rgba(0,102,204,.32)" stroke-width="1"/>
    <rect x="200" y="200" width="170" height="14" rx="2" fill="rgba(0,86,163,.26)" stroke="rgba(0,102,204,.26)" stroke-width="1"/>
    <text x="285" y="193" text-anchor="middle" fill="#4BAAF5" font-size="10" font-weight="700">HBM Stack</text>
    <text x="285" y="170" text-anchor="middle" fill="rgba(255,255,255,.28)" font-size="8">4&#x2013;16&#xD7; DRAM dies</text>
    <g fill="rgba(0,194,255,.45)"><circle cx="38" cy="283" r="2"/><circle cx="58" cy="283" r="2"/><circle cx="78" cy="283" r="2"/><circle cx="98" cy="283" r="2"/><circle cx="118" cy="283" r="2"/><circle cx="138" cy="283" r="2"/><circle cx="208" cy="258" r="2"/><circle cx="228" cy="258" r="2"/><circle cx="248" cy="258" r="2"/><circle cx="268" cy="258" r="2"/><circle cx="288" cy="258" r="2"/><circle cx="308" cy="258" r="2"/></g>
    <line x1="-10" y1="238" x2="-75" y2="218" stroke="rgba(0,194,255,.32)" stroke-width="1" stroke-dasharray="4,3"/>
    <text x="-80" y="214" text-anchor="end" fill="#4BAAF5" font-size="9" font-weight="700">PGMEA G4</text>
    <text x="-80" y="226" text-anchor="end" fill="rgba(255,255,255,.32)" font-size="8">RDL lithography</text>
    <line x1="-10" y1="304" x2="-75" y2="304" stroke="rgba(0,194,255,.22)" stroke-width="1" stroke-dasharray="4,3"/>
    <text x="-80" y="300" text-anchor="end" fill="rgba(75,170,245,.65)" font-size="9" font-weight="700">NMP G4</text>
    <text x="-80" y="312" text-anchor="end" fill="rgba(255,255,255,.28)" font-size="8">PI precursor</text>
    <line x1="395" y1="238" x2="430" y2="238" stroke="rgba(0,194,255,.22)" stroke-width="1" stroke-dasharray="4,3"/>
    <text x="434" y="235" fill="rgba(75,170,245,.65)" font-size="9" font-weight="700">EIPA G4</text>
    <text x="434" y="247" fill="rgba(255,255,255,.28)" font-size="8">Substrate clean</text>
  </g>
  <text x="55" y="88" fill="rgba(75,170,245,.65)" font-size="11" letter-spacing="2">ADVANCED PACKAGING CHEMISTRY</text>
  <text x="55" y="132" fill="white" font-size="28" font-weight="700" font-family="DM Serif Display,serif">2.5D / HBM / FOWLP</text>
  <text x="55" y="158" fill="rgba(255,255,255,.4)" font-size="12">Heterogeneous Integration</text>
  <text x="55" y="196" fill="rgba(75,170,245,.45)" font-size="10" letter-spacing="1">PROCESS &#x2192; CHEMICAL MAP</text>
  <g transform="translate(55,208)">
    <rect width="384" height="24" rx="4" fill="rgba(0,102,204,.2)" stroke="rgba(0,102,204,.35)" stroke-width="1.5"/>
    <text x="12" y="16" fill="rgba(255,255,255,.58)" font-size="10">RDL Lithography</text><text x="220" y="16" fill="#4BAAF5" font-size="10" font-weight="700">PGMEA G4 / PGME G4</text>
    <rect y="28" width="384" height="24" rx="4" fill="rgba(0,102,204,.12)" stroke="rgba(0,102,204,.22)" stroke-width="1"/>
    <text x="12" y="44" fill="rgba(255,255,255,.55)" font-size="10">PI Dielectric Coating</text><text x="220" y="44" fill="#4BAAF5" font-size="10" font-weight="700">NMP G4/G5</text>
    <rect y="56" width="384" height="24" rx="4" fill="rgba(0,102,204,.12)" stroke="rgba(0,102,204,.22)" stroke-width="1"/>
    <text x="12" y="72" fill="rgba(255,255,255,.55)" font-size="10">Thick Resist Strip</text><text x="220" y="72" fill="#4BAAF5" font-size="10" font-weight="700">NMP G4 + Acetone G3</text>
    <rect y="84" width="384" height="24" rx="4" fill="rgba(0,102,204,.12)" stroke="rgba(0,102,204,.22)" stroke-width="1"/>
    <text x="12" y="100" fill="rgba(255,255,255,.55)" font-size="10">Substrate / Die Clean</text><text x="220" y="100" fill="#4BAAF5" font-size="10" font-weight="700">EIPA G4 (SRD)</text>
    <rect y="112" width="384" height="24" rx="4" fill="rgba(0,102,204,.12)" stroke="rgba(0,102,204,.22)" stroke-width="1"/>
    <text x="12" y="128" fill="rgba(255,255,255,.55)" font-size="10">Flux / Adhesive Remove</text><text x="220" y="128" fill="#4BAAF5" font-size="10" font-weight="700">Acetone G3 + IPA G4</text>
    <rect y="140" width="384" height="24" rx="4" fill="rgba(0,102,204,.12)" stroke="rgba(0,102,204,.22)" stroke-width="1"/>
    <text x="12" y="156" fill="rgba(255,255,255,.55)" font-size="10">Edge Bead Removal (EBR)</text><text x="220" y="156" fill="#4BAAF5" font-size="10" font-weight="700">PGME G4 / PGMEA G4</text>
  </g>
  <g transform="translate(55,394)">
    <text fill="rgba(75,170,245,.45)" font-size="9" letter-spacing="1">TECHNOLOGIES: </text>
    <text x="120" fill="rgba(255,255,255,.38)" font-size="9">CoWoS &#xB7; InFO &#xB7; EMIB &#xB7; SoIC &#xB7; HBM2E/HBM3 &#xB7; FOWLP &#xB7; 3D-IC</text>
  </g>
  <rect x="0" y="440" width="900" height="40" fill="rgba(0,0,0,.28)"/>
  <text x="55" y="466" fill="rgba(255,255,255,.32)" font-size="11">PureTech Materials &#xB7; PGMEA / NMP / IPA G4&#x2013;G5 &#xB7; Advanced Packaging Supply</text>
  <text x="845" y="466" text-anchor="end" fill="rgba(75,170,245,.42)" font-size="11">puretechmaterials.com</text>
</svg>