<svg viewBox="0 0 900 480" xmlns="http://www.w3.org/2000/svg" font-family="Space Mono,monospace">
  <defs>
    <linearGradient id="bg" x1="0" y1="0" x2="1" y2="1"><stop offset="0%" stop-color="#0C1008"/><stop offset="100%" stop-color="#0A1A10"/></linearGradient>
    <radialGradient id="orb"><stop offset="0%" stop-color="#16A34A" stop-opacity=".16"/><stop offset="100%" stop-color="#16A34A" stop-opacity="0"/></radialGradient>
    <filter id="bl"><feGaussianBlur stdDeviation="22"/></filter>
  </defs>
  <rect width="900" height="480" fill="url(#bg)"/>
  <g stroke="rgba(22,163,74,.07)" stroke-width="1">
    <line x1="0" y1="80" x2="900" y2="80"/><line x1="0" y1="160" x2="900" y2="160"/><line x1="0" y1="240" x2="900" y2="240"/><line x1="0" y1="320" x2="900" y2="320"/><line x1="0" y1="400" x2="900" y2="400"/>
    <line x1="150" y1="0" x2="150" y2="480"/><line x1="300" y1="0" x2="300" y2="480"/><line x1="450" y1="0" x2="450" y2="480"/><line x1="600" y1="0" x2="600" y2="480"/><line x1="750" y1="0" x2="750" y2="480"/>
  </g>
  <ellipse cx="700" cy="220" rx="280" ry="230" fill="url(#orb)" filter="url(#bl)"/>
  <!-- Material cards -->
  <g transform="translate(465,48)">
    <text x="210" y="18" text-anchor="middle" fill="rgba(74,222,128,.58)" font-size="11" letter-spacing="2">COMPOUND SEMICONDUCTOR MATERIALS</text>
    <rect x="0" y="28" width="198" height="86" rx="7" fill="rgba(22,163,74,.1)" stroke="rgba(22,163,74,.32)" stroke-width="1.5"/>
    <text x="14" y="50" fill="#4ADE80" font-size="15" font-weight="700">GaN</text>
    <text x="14" y="64" fill="rgba(255,255,255,.45)" font-size="8">Gallium Nitride</text>
    <text x="14" y="78" fill="rgba(255,255,255,.38)" font-size="8">Power HEMT &#xB7; RF &#xB7; LED</text>
    <text x="14" y="92" fill="rgba(74,222,128,.58)" font-size="8" font-weight="700">IPA G4 &#xB7; Cl&#x207B; &lt;0.5 ppb</text>
    <text x="14" y="105" fill="rgba(74,222,128,.45)" font-size="8">n-Heptane G4 (MOCVD)</text>
    <rect x="208" y="28" width="198" height="86" rx="7" fill="rgba(0,102,204,.1)" stroke="rgba(0,102,204,.32)" stroke-width="1.5"/>
    <text x="222" y="50" fill="#22D3FF" font-size="15" font-weight="700">SiC</text>
    <text x="222" y="64" fill="rgba(255,255,255,.45)" font-size="8">Silicon Carbide 4H</text>
    <text x="222" y="78" fill="rgba(255,255,255,.38)" font-size="8">Power MOSFET &#xB7; Diode</text>
    <text x="222" y="92" fill="rgba(34,211,255,.58)" font-size="8" font-weight="700">IPA G4 &#xB7; NMP G4 post-impl.</text>
    <text x="222" y="105" fill="rgba(34,211,255,.45)" font-size="8">RCA-adapted clean sequence</text>
    <rect x="0" y="124" width="198" height="86" rx="7" fill="rgba(124,58,237,.1)" stroke="rgba(124,58,237,.32)" stroke-width="1.5"/>
    <text x="14" y="146" fill="#C4B5FD" font-size="15" font-weight="700">InP</text>
    <text x="14" y="160" fill="rgba(255,255,255,.45)" font-size="8">Indium Phosphide</text>
    <text x="14" y="174" fill="rgba(255,255,255,.38)" font-size="8">mmWave HEMT &#xB7; Laser</text>
    <text x="14" y="188" fill="rgba(196,181,253,.58)" font-size="8" font-weight="700">Anhydrous IPA &#x2264;10 ppm H&#x2082;O</text>
    <text x="14" y="201" fill="rgba(196,181,253,.45)" font-size="8">Transfer to deposition &lt;30 min</text>
    <rect x="208" y="124" width="198" height="86" rx="7" fill="rgba(217,119,6,.1)" stroke="rgba(217,119,6,.32)" stroke-width="1.5"/>
    <text x="222" y="146" fill="#FCD34D" font-size="15" font-weight="700">GaAs</text>
    <text x="222" y="160" fill="rgba(255,255,255,.45)" font-size="8">Gallium Arsenide</text>
    <text x="222" y="174" fill="rgba(255,255,255,.38)" font-size="8">Solar &#xB7; VCSEL &#xB7; HBT</text>
    <text x="222" y="188" fill="rgba(252,211,77,.58)" font-size="8" font-weight="700">Ethanol G3 &#xB7; IPA G4 (Cl&#x207B; free)</text>
    <text x="222" y="201" fill="rgba(252,211,77,.45)" font-size="8">No HF &#x2014; use dilute HCl</text>
    <!-- Halide chart -->
    <rect x="0" y="220" width="406" height="128" rx="7" fill="rgba(0,0,0,.32)" stroke="rgba(22,163,74,.14)" stroke-width="1"/>
    <text x="203" y="240" text-anchor="middle" fill="rgba(74,222,128,.55)" font-size="9" letter-spacing="1">CRITICAL: HALIDE LIMITS IN IPA</text>
    <text x="14" y="263" fill="rgba(255,255,255,.42)" font-size="9">Cl&#x207B; limit</text>
    <rect x="68" y="254" width="308" height="12" rx="3" fill="rgba(255,255,255,.05)"/>
    <rect x="68" y="254" width="8" height="12" rx="3" fill="#4ADE80"/>
    <text x="380" y="263" fill="#4ADE80" font-size="9" font-weight="700">&lt;0.5 ppb (G4)</text>
    <text x="14" y="285" fill="rgba(255,255,255,.42)" font-size="9">F&#x207B; limit</text>
    <rect x="68" y="276" width="308" height="12" rx="3" fill="rgba(255,255,255,.05)"/>
    <rect x="68" y="276" width="8" height="12" rx="3" fill="#22D3FF"/>
    <text x="380" y="285" fill="#22D3FF" font-size="9" font-weight="700">&lt;0.5 ppb (G4)</text>
    <text x="14" y="307" fill="rgba(255,255,255,.42)" font-size="9">Metals</text>
    <rect x="68" y="298" width="308" height="12" rx="3" fill="rgba(255,255,255,.05)"/>
    <rect x="68" y="298" width="14" height="12" rx="3" fill="#C4B5FD"/>
    <text x="380" y="307" fill="#C4B5FD" font-size="9" font-weight="700">&#x2264;0.5 ppb (G4)</text>
    <text x="14" y="336" fill="rgba(74,222,128,.45)" font-size="7">Cl&#x207B; &gt;1 ppb in IPA &#x2192; N-vacancy trap states &#x2192; threshold voltage instability in GaN HEMTs</text>
  </g>
  <text x="55" y="88" fill="rgba(74,222,128,.62)" font-size="11" letter-spacing="2">COMPOUND SEMICONDUCTOR CLEANING</text>
  <text x="55" y="132" fill="white" font-size="26" font-weight="700" font-family="DM Serif Display,serif">GaN &#xB7; SiC &#xB7; InP &#xB7; GaAs</text>
  <text x="55" y="156" fill="rgba(255,255,255,.4)" font-size="12">Halide-Free Wet Clean</text>
  <text x="55" y="192" fill="rgba(74,222,128,.45)" font-size="10" letter-spacing="1">vs Si CMOS: KEY DIFFERENCES</text>
  <g transform="translate(55,205)">
    <rect width="382" height="24" rx="4" fill="rgba(22,163,74,.1)" stroke="rgba(22,163,74,.22)" stroke-width="1"/>
    <text x="12" y="16" fill="rgba(255,255,255,.58)" font-size="10">Halide control</text><text x="162" y="16" fill="#4ADE80" font-size="10" font-weight="700">Cl&#x207B;, F&#x207B; &lt;0.5 ppb all solvents</text>
    <rect y="28" width="382" height="24" rx="4" fill="rgba(22,163,74,.08)" stroke="rgba(22,163,74,.16)" stroke-width="1"/>
    <text x="12" y="44" fill="rgba(255,255,255,.58)" font-size="10">InP moisture</text><text x="162" y="44" fill="#4ADE80" font-size="10" font-weight="700">Anhydrous IPA &#x2264;10 ppm H&#x2082;O</text>
    <rect y="56" width="382" height="24" rx="4" fill="rgba(22,163,74,.08)" stroke="rgba(22,163,74,.16)" stroke-width="1"/>
    <text x="12" y="72" fill="rgba(255,255,255,.58)" font-size="10">GaN MOCVD clean</text><text x="162" y="72" fill="#4ADE80" font-size="10" font-weight="700">n-Heptane G4 (benzene &#x2264;0.5 ppm)</text>
    <rect y="84" width="382" height="24" rx="4" fill="rgba(22,163,74,.08)" stroke="rgba(22,163,74,.16)" stroke-width="1"/>
    <text x="12" y="100" fill="rgba(255,255,255,.58)" font-size="10">GaAs surface</text><text x="162" y="100" fill="#4ADE80" font-size="10" font-weight="700">Ethanol G3 (no HF, use HCl)</text>
    <rect y="112" width="382" height="24" rx="4" fill="rgba(22,163,74,.08)" stroke="rgba(22,163,74,.16)" stroke-width="1"/>
    <text x="12" y="128" fill="rgba(255,255,255,.58)" font-size="10">LED / VCSEL die</text><text x="162" y="128" fill="#4ADE80" font-size="10" font-weight="700">Ethanol G3 (low surface tension)</text>
  </g>
  <g transform="translate(55,368)">
    <rect width="382" height="34" rx="6" fill="rgba(22,163,74,.1)" stroke="rgba(22,163,74,.22)" stroke-width="1"/>
    <text x="12" y="14" fill="rgba(74,222,128,.55)" font-size="8" letter-spacing="1">MARKET CONTEXT</text>
    <text x="12" y="26" fill="rgba(255,255,255,.42)" font-size="8">GaN power market $2.5B&#x2192;$9.5B by 2030 &#xB7; SiC MOSFET $1.2B&#x2192;$6.3B by 2028</text>
  </g>
  <rect x="0" y="440" width="900" height="40" fill="rgba(0,0,0,.28)"/>
  <text x="55" y="466" fill="rgba(255,255,255,.3)" font-size="11">PureTech Materials &#xB7; IPA G4 Halide-Free &#xB7; n-Heptane G4 &#xB7; Anhydrous Ethanol G3/G4</text>
  <text x="845" y="466" text-anchor="end" fill="rgba(74,222,128,.38)" font-size="11">puretechmaterials.com</text>
</svg>