<svg viewBox="0 0 900 480" xmlns="http://www.w3.org/2000/svg" font-family="Space Mono,monospace">
  <defs>
    <linearGradient id="bg" x1="0" y1="0" x2="1" y2="1"><stop offset="0%" stop-color="#0A1020"/><stop offset="100%" stop-color="#0A2040"/></linearGradient>
    <radialGradient id="orb"><stop offset="0%" stop-color="#0284C7" stop-opacity=".28"/><stop offset="100%" stop-color="#0284C7" stop-opacity="0"/></radialGradient>
    <filter id="bl"><feGaussianBlur stdDeviation="20"/></filter>
  </defs>
  <rect width="900" height="480" fill="url(#bg)"/>
  <g stroke="rgba(2,132,199,.07)" stroke-width="1">
    <line x1="0" y1="80" x2="900" y2="80"/><line x1="0" y1="160" x2="900" y2="160"/><line x1="0" y1="240" x2="900" y2="240"/><line x1="0" y1="320" x2="900" y2="320"/><line x1="0" y1="400" x2="900" y2="400"/>
    <line x1="150" y1="0" x2="150" y2="480"/><line x1="300" y1="0" x2="300" y2="480"/><line x1="450" y1="0" x2="450" y2="480"/><line x1="600" y1="0" x2="600" y2="480"/><line x1="750" y1="0" x2="750" y2="480"/>
  </g>
  <ellipse cx="660" cy="230" rx="260" ry="220" fill="url(#orb)" filter="url(#bl)"/>
  <g transform="translate(620,170)">
    <circle r="155" fill="rgba(2,132,199,.05)" stroke="rgba(56,189,248,.22)" stroke-width="1.5"/>
    <path d="M0,0 L0,-155 A155,155 0 0,1 109,109 Z" fill="rgba(2,132,199,.22)" stroke="rgba(56,189,248,.38)" stroke-width="1.5"/>
    <text x="55" y="-62" fill="#38BDF8" font-size="13" font-weight="700">EC</text>
    <text x="55" y="-48" fill="rgba(255,255,255,.38)" font-size="9">33%</text>
    <path d="M0,0 L109,109 A155,155 0 0,1 -109,109 Z" fill="rgba(2,132,199,.38)" stroke="rgba(56,189,248,.48)" stroke-width="1.5"/>
    <text x="-12" y="135" fill="white" font-size="14" font-weight="700">DMC</text>
    <text x="-12" y="150" fill="rgba(255,255,255,.48)" font-size="10">33%</text>
    <path d="M0,0 L-109,109 A155,155 0 0,1 0,-155 Z" fill="rgba(2,132,199,.16)" stroke="rgba(56,189,248,.28)" stroke-width="1.5"/>
    <text x="-118" y="-30" fill="rgba(56,189,248,.75)" font-size="12" font-weight="700">EMC</text>
    <text x="-118" y="-16" fill="rgba(255,255,255,.38)" font-size="9">33%</text>
    <circle r="46" fill="rgba(2,132,199,.28)" stroke="rgba(56,189,248,.58)" stroke-width="2"/>
    <text x="0" y="-5" text-anchor="middle" fill="white" font-size="10" font-weight="700">1.0 M</text>
    <text x="0" y="9" text-anchor="middle" fill="#38BDF8" font-size="10" font-weight="700">LiPF&#x2086;</text>
  </g>
  <text x="55" y="88" fill="rgba(56,189,248,.65)" font-size="11" letter-spacing="2">BATTERY ELECTROLYTE CHEMISTRY</text>
  <text x="55" y="132" fill="white" font-size="34" font-weight="700" font-family="DM Serif Display,serif">DMC</text>
  <text x="55" y="158" fill="rgba(255,255,255,.42)" font-size="12">(CH&#x2083;O)&#x2082;CO &#xB7; CAS 616-38-6</text>
  <text x="55" y="176" fill="rgba(255,255,255,.28)" font-size="10">MW 90.08 &#xB7; BP 90&#xB0;C &#xB7; Visc 0.59 mPa&#xB7;s &#xB7; &#x3B5; 3.1</text>
  <g transform="translate(55,198)">
    <rect width="86" height="56" rx="6" fill="rgba(2,132,199,.12)" stroke="rgba(2,132,199,.28)" stroke-width="1"/>
    <text x="43" y="22" text-anchor="middle" fill="#38BDF8" font-size="16" font-weight="700">3.1</text>
    <text x="43" y="36" text-anchor="middle" fill="rgba(255,255,255,.38)" font-size="8">Dielectric &#x3B5;</text>
    <text x="43" y="49" text-anchor="middle" fill="rgba(255,255,255,.28)" font-size="7">low viscosity</text>
    <rect x="94" width="86" height="56" rx="6" fill="rgba(2,132,199,.12)" stroke="rgba(2,132,199,.28)" stroke-width="1"/>
    <text x="137" y="22" text-anchor="middle" fill="#38BDF8" font-size="16" font-weight="700">&gt;5V</text>
    <text x="137" y="36" text-anchor="middle" fill="rgba(255,255,255,.38)" font-size="8">Electrochem.</text>
    <text x="137" y="49" text-anchor="middle" fill="rgba(255,255,255,.28)" font-size="7">window</text>
    <rect x="188" width="86" height="56" rx="6" fill="rgba(2,132,199,.12)" stroke="rgba(2,132,199,.28)" stroke-width="1"/>
    <text x="231" y="22" text-anchor="middle" fill="#38BDF8" font-size="16" font-weight="700">&#x2264;10</text>
    <text x="231" y="36" text-anchor="middle" fill="rgba(255,255,255,.38)" font-size="8">ppm H&#x2082;O</text>
    <text x="231" y="49" text-anchor="middle" fill="rgba(255,255,255,.28)" font-size="7">G5 grade</text>
    <rect x="282" width="86" height="56" rx="6" fill="rgba(2,132,199,.12)" stroke="rgba(2,132,199,.28)" stroke-width="1"/>
    <text x="325" y="22" text-anchor="middle" fill="#38BDF8" font-size="14" font-weight="700">&#x2264;50</text>
    <text x="325" y="36" text-anchor="middle" fill="rgba(255,255,255,.38)" font-size="8">ppb Cl&#x207B; (G5)</text>
    <text x="325" y="49" text-anchor="middle" fill="rgba(255,255,255,.28)" font-size="7">IC analysis</text>
  </g>
  <g transform="translate(55,275)">
    <rect width="430" height="120" rx="8" fill="rgba(0,0,0,.32)" stroke="rgba(2,132,199,.18)" stroke-width="1"/>
    <rect width="430" height="22" rx="8" fill="rgba(2,132,199,.16)"/>
    <rect x="0" y="12" width="430" height="10" fill="rgba(2,132,199,.16)"/>
    <text x="14" y="15" fill="rgba(255,255,255,.48)" font-size="9" letter-spacing="1">PARAMETER</text><text x="180" y="15" fill="rgba(255,255,255,.48)" font-size="9">METHOD</text><text x="288" y="15" fill="#38BDF8" font-size="9" font-weight="700">G4</text><text x="368" y="15" fill="#7DD3FC" font-size="9" font-weight="700">G5</text>
    <text x="14" y="38" fill="rgba(255,255,255,.62)" font-size="10">Water (KF)</text><text x="180" y="38" fill="rgba(255,255,255,.32)" font-size="10">Karl Fischer</text><text x="288" y="38" fill="#38BDF8" font-size="10">&#x2264;20 ppm</text><text x="368" y="38" fill="#7DD3FC" font-size="10" font-weight="700">&#x2264;10 ppm</text>
    <line x1="8" y1="46" x2="422" y2="46" stroke="rgba(2,132,199,.12)" stroke-width="1"/>
    <text x="14" y="60" fill="rgba(255,255,255,.62)" font-size="10">Chloride (Cl&#x207B;)</text><text x="180" y="60" fill="rgba(255,255,255,.32)" font-size="10">IC</text><text x="288" y="60" fill="#38BDF8" font-size="10">&#x2264;100 ppb</text><text x="368" y="60" fill="#7DD3FC" font-size="10" font-weight="700">&#x2264;50 ppb</text>
    <line x1="8" y1="68" x2="422" y2="68" stroke="rgba(2,132,199,.12)" stroke-width="1"/>
    <text x="14" y="82" fill="rgba(255,255,255,.62)" font-size="10">Fe / Ni</text><text x="180" y="82" fill="rgba(255,255,255,.32)" font-size="10">ICP-MS</text><text x="288" y="82" fill="#38BDF8" font-size="10">&#x2264;0.2 ppb</text><text x="368" y="82" fill="#7DD3FC" font-size="10" font-weight="700">&lt;0.05 ppb</text>
    <line x1="8" y1="90" x2="422" y2="90" stroke="rgba(2,132,199,.12)" stroke-width="1"/>
    <text x="14" y="104" fill="rgba(255,255,255,.62)" font-size="10">Total Metals</text><text x="180" y="104" fill="rgba(255,255,255,.32)" font-size="10">ICP-MS</text><text x="288" y="104" fill="#38BDF8" font-size="10">&#x2264;0.5 ppb ea.</text><text x="368" y="104" fill="#7DD3FC" font-size="10" font-weight="700">&lt;0.1 ppb ea.</text>
  </g>
  <g transform="translate(55,415)">
    <text fill="rgba(56,189,248,.48)" font-size="9" letter-spacing="1">COMPATIBLE: </text>
    <text x="110" fill="rgba(255,255,255,.38)" font-size="9">NMC-811 &#xB7; LFP &#xB7; NCA &#xB7; Na-ion &#xB7; Solid-State &#xB7; Li-S &#xB7; Supercapacitor</text>
  </g>
  <rect x="0" y="440" width="900" height="40" fill="rgba(0,0,0,.28)"/>
  <text x="55" y="466" fill="rgba(255,255,255,.32)" font-size="11">PureTech Materials &#xB7; DMC G4/G5 &#xB7; EV Battery Grade &#xB7; Cl&#x207B; &#x2264;50 ppb</text>
  <text x="845" y="466" text-anchor="end" fill="rgba(56,189,248,.42)" font-size="11">puretechmaterials.com</text>
</svg>