<svg viewBox="0 0 900 480" xmlns="http://www.w3.org/2000/svg" font-family="Space Mono,monospace">
  <defs>
    <linearGradient id="bg" x1="0" y1="0" x2="1" y2="1"><stop offset="0%" stop-color="#020C1B"/><stop offset="100%" stop-color="#0A1F3A"/></linearGradient>
    <linearGradient id="bar" x1="0" y1="0" x2="1" y2="0"><stop offset="0%" stop-color="#0066CC"/><stop offset="100%" stop-color="#00C2FF"/></linearGradient>
    <radialGradient id="orb"><stop offset="0%" stop-color="#0066CC" stop-opacity=".28"/><stop offset="100%" stop-color="#0066CC" stop-opacity="0"/></radialGradient>
    <filter id="bl"><feGaussianBlur stdDeviation="18"/></filter>
  </defs>
  <rect width="900" height="480" fill="url(#bg)"/>
  <g stroke="rgba(0,102,204,.07)" stroke-width="1">
    <line x1="0" y1="80" x2="900" y2="80"/><line x1="0" y1="160" x2="900" y2="160"/><line x1="0" y1="240" x2="900" y2="240"/><line x1="0" y1="320" x2="900" y2="320"/><line x1="0" y1="400" x2="900" y2="400"/>
    <line x1="150" y1="0" x2="150" y2="480"/><line x1="300" y1="0" x2="300" y2="480"/><line x1="450" y1="0" x2="450" y2="480"/><line x1="600" y1="0" x2="600" y2="480"/><line x1="750" y1="0" x2="750" y2="480"/>
  </g>
  <ellipse cx="690" cy="240" rx="260" ry="220" fill="url(#orb)" filter="url(#bl)"/>
  <!-- Wafer -->
  <g transform="translate(700,240)">
    <circle r="145" fill="none" stroke="rgba(0,102,204,.15)" stroke-width="1"/>
    <circle r="120" fill="rgba(0,102,204,.05)" stroke="rgba(0,194,255,.3)" stroke-width="1.5"/>
    <g stroke="rgba(0,194,255,.1)" stroke-width=".8">
      <line x1="-85" y1="-85" x2="85" y2="-85"/><line x1="-85" y1="-42" x2="85" y2="-42"/>
      <line x1="-85" y1="0" x2="85" y2="0"/><line x1="-85" y1="42" x2="85" y2="42"/>
      <line x1="-85" y1="85" x2="85" y2="85"/>
      <line x1="-85" y1="-85" x2="-85" y2="85"/><line x1="-42" y1="-85" x2="-42" y2="85"/>
      <line x1="0" y1="-85" x2="0" y2="85"/><line x1="42" y1="-85" x2="42" y2="85"/>
      <line x1="85" y1="-85" x2="85" y2="85"/>
    </g>
    <text x="0" y="6" text-anchor="middle" fill="#4BAAF5" font-size="13" font-weight="700">300mm</text>
    <text x="0" y="22" text-anchor="middle" fill="rgba(255,255,255,.3)" font-size="10">Silicon Wafer</text>
    <rect x="-32" y="-158" width="64" height="22" rx="11" fill="#0099E8"/>
    <text x="0" y="-143" text-anchor="middle" fill="white" font-size="11" font-weight="700">SEMI G5</text>
  </g>
  <!-- Left -->
  <text x="55" y="88" fill="rgba(0,194,255,.65)" font-size="11" letter-spacing="3">ELECTRONIC GRADE IPA · SEMI C1</text>
  <text x="55" y="132" fill="white" font-size="36" font-weight="700" font-family="DM Serif Display,serif">(CH&#x2083;)&#x2082;CHOH</text>
  <text x="55" y="162" fill="rgba(255,255,255,.45)" font-size="13">CAS 67-63-0 · MW 60.10 · BP 82.6&#xB0;C</text>
  <g transform="translate(55,190)">
    <text x="0" y="14" fill="rgba(255,255,255,.45)" font-size="11">G2</text>
    <rect x="36" y="4" width="260" height="12" rx="6" fill="rgba(255,255,255,.06)"/>
    <rect x="36" y="4" width="143" height="12" rx="6" fill="url(#bar)" opacity=".5"/>
    <text x="305" y="14" fill="rgba(255,255,255,.4)" font-size="10">&#x2265;99.9%</text>
    <text x="0" y="40" fill="rgba(255,255,255,.45)" font-size="11">G3</text>
    <rect x="36" y="30" width="260" height="12" rx="6" fill="rgba(255,255,255,.06)"/>
    <rect x="36" y="30" width="182" height="12" rx="6" fill="url(#bar)" opacity=".65"/>
    <text x="305" y="40" fill="rgba(255,255,255,.4)" font-size="10">&#x2265;99.99%</text>
    <text x="0" y="66" fill="rgba(255,255,255,.45)" font-size="11">G4</text>
    <rect x="36" y="56" width="260" height="12" rx="6" fill="rgba(255,255,255,.06)"/>
    <rect x="36" y="56" width="220" height="12" rx="6" fill="url(#bar)" opacity=".8"/>
    <text x="305" y="66" fill="rgba(255,255,255,.4)" font-size="10">&#x2265;99.999%</text>
    <text x="0" y="92" fill="#00C2FF" font-size="11" font-weight="700">G5</text>
    <rect x="36" y="82" width="260" height="12" rx="6" fill="rgba(255,255,255,.06)"/>
    <rect x="36" y="82" width="260" height="12" rx="6" fill="url(#bar)"/>
    <text x="305" y="92" fill="#00C2FF" font-size="10" font-weight="700">&#x2265;99.9999%</text>
  </g>
  <g transform="translate(55,318)">
    <rect width="116" height="58" rx="7" fill="rgba(0,102,204,.12)" stroke="rgba(0,102,204,.3)" stroke-width="1"/>
    <text x="58" y="22" text-anchor="middle" fill="#4BAAF5" font-size="17" font-weight="700">&lt;0.1</text>
    <text x="58" y="36" text-anchor="middle" fill="rgba(255,255,255,.38)" font-size="8">ppb metals (G5)</text>
    <text x="58" y="49" text-anchor="middle" fill="rgba(255,255,255,.28)" font-size="8">28-element ICP-MS</text>
    <rect x="126" width="116" height="58" rx="7" fill="rgba(0,102,204,.12)" stroke="rgba(0,102,204,.3)" stroke-width="1"/>
    <text x="184" y="22" text-anchor="middle" fill="#4BAAF5" font-size="17" font-weight="700">&#x2264;5</text>
    <text x="184" y="36" text-anchor="middle" fill="rgba(255,255,255,.38)" font-size="8">particles/mL (G5)</text>
    <text x="184" y="49" text-anchor="middle" fill="rgba(255,255,255,.28)" font-size="8">at &#x2265;0.5&#x3BC;m LPC</text>
    <rect x="252" width="116" height="58" rx="7" fill="rgba(0,102,204,.12)" stroke="rgba(0,102,204,.3)" stroke-width="1"/>
    <text x="310" y="22" text-anchor="middle" fill="#4BAAF5" font-size="17" font-weight="700">&#x2264;5</text>
    <text x="310" y="36" text-anchor="middle" fill="rgba(255,255,255,.38)" font-size="8">ppm H&#x2082;O (KF)</text>
    <text x="310" y="49" text-anchor="middle" fill="rgba(255,255,255,.28)" font-size="8">Karl Fischer</text>
  </g>
  <rect x="0" y="440" width="900" height="40" fill="rgba(0,0,0,.3)"/>
  <text x="55" y="466" fill="rgba(255,255,255,.38)" font-size="11">PureTech Materials &#xB7; SEMI C1 Tier D &#xB7; ISO Class 3 Fill &#xB7; Full CoA per Lot</text>
  <text x="845" y="466" text-anchor="end" fill="rgba(0,194,255,.45)" font-size="11">puretechmaterials.com</text>
</svg>