<svg viewBox="0 0 900 480" xmlns="http://www.w3.org/2000/svg" font-family="Space Mono,monospace">
  <defs>
    <linearGradient id="bg" x1="0" y1="0" x2="1" y2="1"><stop offset="0%" stop-color="#0A0C10"/><stop offset="100%" stop-color="#121620"/></linearGradient>
    <radialGradient id="orb"><stop offset="0%" stop-color="#475569" stop-opacity=".18"/><stop offset="100%" stop-color="#475569" stop-opacity="0"/></radialGradient>
    <filter id="bl"><feGaussianBlur stdDeviation="22"/></filter>
  </defs>
  <rect width="900" height="480" fill="url(#bg)"/>
  <g stroke="rgba(71,85,105,.08)" stroke-width="1">
    <line x1="0" y1="80" x2="900" y2="80"/><line x1="0" y1="160" x2="900" y2="160"/><line x1="0" y1="240" x2="900" y2="240"/><line x1="0" y1="320" x2="900" y2="320"/><line x1="0" y1="400" x2="900" y2="400"/>
    <line x1="150" y1="0" x2="150" y2="480"/><line x1="300" y1="0" x2="300" y2="480"/><line x1="450" y1="0" x2="450" y2="480"/><line x1="600" y1="0" x2="600" y2="480"/><line x1="750" y1="0" x2="750" y2="480"/>
  </g>
  <ellipse cx="680" cy="230" rx="270" ry="220" fill="url(#orb)" filter="url(#bl)"/>
  <!-- OSAT flow -->
  <g transform="translate(462,44)">
    <text x="210" y="18" text-anchor="middle" fill="rgba(148,163,184,.62)" font-size="11" letter-spacing="2">OSAT BACKEND PROCESS FLOW</text>
    <rect x="80" y="28" width="260" height="26" rx="4" fill="rgba(71,85,105,.22)" stroke="rgba(148,163,184,.22)" stroke-width="1"/>
    <text x="210" y="45" text-anchor="middle" fill="rgba(255,255,255,.52)" font-size="10">Wafer Backgrind &amp; Dicing</text>
    <line x1="210" y1="54" x2="210" y2="68" stroke="rgba(148,163,184,.28)" stroke-width="1.5"/>
    <rect x="55" y="68" width="310" height="28" rx="4" fill="rgba(0,102,204,.18)" stroke="rgba(0,102,204,.42)" stroke-width="1.5"/>
    <text x="210" y="86" text-anchor="middle" fill="#4BAAF5" font-size="10" font-weight="700">Die Prep Clean &#xB7; Acetone G3/G4</text>
    <line x1="210" y1="96" x2="210" y2="110" stroke="rgba(148,163,184,.28)" stroke-width="1.5"/>
    <rect x="80" y="110" width="260" height="26" rx="4" fill="rgba(71,85,105,.18)" stroke="rgba(148,163,184,.18)" stroke-width="1"/>
    <text x="210" y="127" text-anchor="middle" fill="rgba(255,255,255,.42)" font-size="10">Die Attach / Flip-Chip Bond</text>
    <line x1="210" y1="136" x2="210" y2="150" stroke="rgba(148,163,184,.28)" stroke-width="1.5"/>
    <rect x="55" y="150" width="310" height="28" rx="4" fill="rgba(0,102,204,.14)" stroke="rgba(0,102,204,.32)" stroke-width="1.5"/>
    <text x="210" y="168" text-anchor="middle" fill="#4BAAF5" font-size="10" font-weight="700">Wire Bond Prep &#xB7; Acetone G3</text>
    <line x1="210" y1="178" x2="210" y2="192" stroke="rgba(148,163,184,.28)" stroke-width="1.5"/>
    <rect x="80" y="192" width="260" height="26" rx="4" fill="rgba(71,85,105,.18)" stroke="rgba(148,163,184,.18)" stroke-width="1"/>
    <text x="210" y="209" text-anchor="middle" fill="rgba(255,255,255,.42)" font-size="10">Solder Reflow (BGA / Flip-Chip)</text>
    <line x1="210" y1="218" x2="210" y2="232" stroke="rgba(148,163,184,.28)" stroke-width="1.5"/>
    <rect x="55" y="232" width="310" height="28" rx="4" fill="rgba(0,102,204,.18)" stroke="rgba(0,102,204,.42)" stroke-width="1.5"/>
    <text x="210" y="250" text-anchor="middle" fill="#4BAAF5" font-size="10" font-weight="700">Flux Residue Remove &#xB7; Acetone G2/G3</text>
    <line x1="210" y1="260" x2="210" y2="274" stroke="rgba(148,163,184,.28)" stroke-width="1.5"/>
    <rect x="80" y="274" width="260" height="26" rx="4" fill="rgba(71,85,105,.18)" stroke="rgba(148,163,184,.18)" stroke-width="1"/>
    <text x="210" y="291" text-anchor="middle" fill="rgba(255,255,255,.42)" font-size="10">Underfill &amp; Mold</text>
    <line x1="210" y1="300" x2="210" y2="314" stroke="rgba(148,163,184,.28)" stroke-width="1.5"/>
    <rect x="55" y="314" width="310" height="28" rx="4" fill="rgba(0,102,204,.12)" stroke="rgba(0,102,204,.28)" stroke-width="1"/>
    <text x="210" y="332" text-anchor="middle" fill="#4BAAF5" font-size="10" font-weight="700">Final Clean &#x2192; Test &#xB7; IPA G4</text>
    <line x1="370" y1="82" x2="412" y2="82" stroke="rgba(148,163,184,.28)" stroke-width="1" stroke-dasharray="3,3"/>
    <text x="416" y="79" fill="rgba(148,163,184,.62)" font-size="8" font-weight="700">BP 56&#xB0;C</text>
    <text x="416" y="91" fill="rgba(148,163,184,.38)" font-size="7">Fast evaporation</text>
    <line x1="370" y1="164" x2="412" y2="164" stroke="rgba(148,163,184,.22)" stroke-width="1" stroke-dasharray="3,3"/>
    <text x="416" y="161" fill="rgba(148,163,184,.48)" font-size="8">23.5 mN/m</text>
    <text x="416" y="173" fill="rgba(148,163,184,.32)" font-size="7">Low surface tension</text>
    <line x1="370" y1="248" x2="412" y2="248" stroke="rgba(148,163,184,.22)" stroke-width="1" stroke-dasharray="3,3"/>
    <text x="416" y="245" fill="rgba(148,163,184,.48)" font-size="8">Broad solvency</text>
    <text x="416" y="257" fill="rgba(148,163,184,.32)" font-size="7">Rosin+no-clean flux</text>
  </g>
  <text x="55" y="88" fill="rgba(148,163,184,.62)" font-size="11" letter-spacing="2">OSAT &amp; BACKEND PROCESS</text>
  <text x="55" y="132" fill="white" font-size="28" font-weight="700" font-family="DM Serif Display,serif">Electronic Acetone</text>
  <text x="55" y="156" fill="rgba(255,255,255,.4)" font-size="12">(CH&#x2083;)&#x2082;CO &#xB7; CAS 67-64-1</text>
  <text x="55" y="175" fill="rgba(255,255,255,.28)" font-size="10">BP 56.1&#xB0;C &#xB7; MW 58.08 &#xB7; 0.791 g/mL</text>
  <text x="55" y="212" fill="rgba(148,163,184,.45)" font-size="10" letter-spacing="1">GRADE BY APPLICATION</text>
  <g transform="translate(55,224)">
    <rect width="382" height="22" rx="4" fill="rgba(0,102,204,.2)" stroke="rgba(0,102,204,.38)" stroke-width="1.5"/>
    <text x="12" y="15" fill="white" font-size="10" font-weight="700">Flip-Chip &lt;7nm die</text><text x="265" y="15" fill="#22D3FF" font-size="10" font-weight="700">G4</text>
    <rect y="26" width="382" height="22" rx="4" fill="rgba(0,102,204,.12)" stroke="rgba(0,102,204,.25)" stroke-width="1"/>
    <text x="12" y="41" fill="rgba(255,255,255,.62)" font-size="10">Wire Bonding / Die Prep</text><text x="265" y="41" fill="#4BAAF5" font-size="10" font-weight="700">G3</text>
    <rect y="52" width="382" height="22" rx="4" fill="rgba(71,85,105,.12)" stroke="rgba(71,85,105,.22)" stroke-width="1"/>
    <text x="12" y="67" fill="rgba(255,255,255,.52)" font-size="10">Flux Removal (SMT)</text><text x="265" y="67" fill="rgba(148,163,184,.78)" font-size="10" font-weight="700">G2 / G3</text>
    <rect y="78" width="382" height="22" rx="4" fill="rgba(71,85,105,.1)" stroke="rgba(71,85,105,.18)" stroke-width="1"/>
    <text x="12" y="93" fill="rgba(255,255,255,.42)" font-size="10">Leadframe Degreasing</text><text x="265" y="93" fill="rgba(148,163,184,.58)" font-size="10">G2</text>
  </g>
  <g transform="translate(55,358)">
    <text fill="rgba(148,163,184,.45)" font-size="9" letter-spacing="1">KEY SPECS (G4): </text>
    <text x="120" fill="rgba(255,255,255,.45)" font-size="9">Residue &#x2264;2 ppm &#xB7; IPA &#x2264;20 ppm &#xB7; Methanol &#x2264;5 ppm &#xB7; Metals &#x2264;0.5 ppb</text>
  </g>
  <rect x="0" y="440" width="900" height="40" fill="rgba(0,0,0,.28)"/>
  <text x="55" y="466" fill="rgba(255,255,255,.3)" font-size="11">PureTech Materials &#xB7; Acetone G2&#x2013;G5 &#xB7; OSAT &amp; Advanced Packaging Supply</text>
  <text x="845" y="466" text-anchor="end" fill="rgba(148,163,184,.38)" font-size="11">puretechmaterials.com</text>
</svg>