<svg viewBox="0 0 900 480" xmlns="http://www.w3.org/2000/svg" font-family="Space Mono,monospace">
  <defs>
    <linearGradient id="bg" x1="0" y1="0" x2="1" y2="1"><stop offset="0%" stop-color="#0C0820"/><stop offset="100%" stop-color="#1A0A3A"/></linearGradient>
    <linearGradient id="peak" x1="0" y1="0" x2="0" y2="1"><stop offset="0%" stop-color="#A78BFA"/><stop offset="100%" stop-color="#4C1D95" stop-opacity=".2"/></linearGradient>
    <radialGradient id="orb"><stop offset="0%" stop-color="#7C3AED" stop-opacity=".22"/><stop offset="100%" stop-color="#7C3AED" stop-opacity="0"/></radialGradient>
    <filter id="bl"><feGaussianBlur stdDeviation="18"/></filter>
  </defs>
  <rect width="900" height="480" fill="url(#bg)"/>
  <g stroke="rgba(124,58,237,.07)" stroke-width="1">
    <line x1="0" y1="80" x2="900" y2="80"/><line x1="0" y1="160" x2="900" y2="160"/><line x1="0" y1="240" x2="900" y2="240"/><line x1="0" y1="320" x2="900" y2="320"/><line x1="0" y1="400" x2="900" y2="400"/>
    <line x1="150" y1="0" x2="150" y2="480"/><line x1="300" y1="0" x2="300" y2="480"/><line x1="450" y1="0" x2="450" y2="480"/><line x1="600" y1="0" x2="600" y2="480"/><line x1="750" y1="0" x2="750" y2="480"/>
  </g>
  <ellipse cx="650" cy="200" rx="260" ry="220" fill="url(#orb)" filter="url(#bl)"/>
  <!-- Chromatogram chart -->
  <g transform="translate(468,55)">
    <rect width="390" height="278" rx="8" fill="rgba(0,0,0,.38)" stroke="rgba(124,58,237,.2)" stroke-width="1"/>
    <text x="-22" y="145" fill="rgba(255,255,255,.28)" font-size="8" text-anchor="middle" transform="rotate(-90,-22,145)">UV Absorbance (AU)</text>
    <text x="195" y="296" fill="rgba(255,255,255,.28)" font-size="8" text-anchor="middle">Retention Time (min)</text>
    <g stroke="rgba(124,58,237,.1)" stroke-width="1">
      <line x1="45" y1="40" x2="370" y2="40"/><line x1="45" y1="90" x2="370" y2="90"/>
      <line x1="45" y1="140" x2="370" y2="140"/><line x1="45" y1="190" x2="370" y2="190"/>
      <line x1="45" y1="240" x2="370" y2="240"/>
      <line x1="45" y1="40" x2="45" y2="258"/><line x1="125" y1="40" x2="125" y2="258"/>
      <line x1="205" y1="40" x2="205" y2="258"/><line x1="285" y1="40" x2="285" y2="258"/><line x1="365" y1="40" x2="365" y2="258"/>
    </g>
    <line x1="45" y1="258" x2="370" y2="258" stroke="rgba(255,255,255,.18)" stroke-width="1.5"/>
    <line x1="45" y1="40" x2="45" y2="258" stroke="rgba(255,255,255,.18)" stroke-width="1.5"/>
    <path d="M45,256 L82,256 L86,228 L90,178 L95,98 L100,58 L105,88 L110,168 L115,228 L122,254 L140,254 L148,238 L153,198 L158,155 L163,198 L168,238 L178,254 L198,254 L207,242 L213,210 L218,175 L223,210 L228,242 L248,254 L258,248 L263,225 L268,205 L273,225 L278,248 L370,254"
      fill="none" stroke="url(#peak)" stroke-width="2.5"/>
    <path d="M45,258 L82,258 L86,230 L90,180 L95,100 L100,60 L105,90 L110,170 L115,230 L122,256 L140,256 L148,240 L153,200 L158,157 L163,200 L168,240 L178,256 L198,256 L207,244 L213,212 L218,177 L223,212 L228,244 L248,256 L258,250 L263,227 L268,207 L273,227 L278,250 L370,256 L370,258 Z"
      fill="url(#peak)" opacity=".28"/>
    <text x="100" y="53" text-anchor="middle" fill="rgba(167,139,250,.8)" font-size="9">API</text>
    <text x="100" y="63" text-anchor="middle" fill="rgba(255,255,255,.28)" font-size="7">t=2.1 min</text>
    <text x="158" y="148" text-anchor="middle" fill="rgba(167,139,250,.58)" font-size="7">Metabolite</text>
    <text x="268" y="198" text-anchor="middle" fill="rgba(167,139,250,.45)" font-size="7">Imp.</text>
    <rect x="278" y="44" width="78" height="18" rx="4" fill="#7C3AED"/>
    <text x="317" y="56" text-anchor="middle" fill="white" font-size="9" font-weight="700">LC-MS Grade</text>
    <text x="55" y="270" fill="rgba(255,255,255,.28)" font-size="7">2</text>
    <text x="200" y="270" fill="rgba(255,255,255,.28)" font-size="7">4</text>
    <text x="340" y="270" fill="rgba(255,255,255,.28)" font-size="7">7</text>
    <text x="38" y="43" text-anchor="end" fill="rgba(255,255,255,.28)" font-size="7">1.0</text>
    <text x="38" y="143" text-anchor="end" fill="rgba(255,255,255,.28)" font-size="7">0.5</text>
    <text x="38" y="243" text-anchor="end" fill="rgba(255,255,255,.28)" font-size="7">0.0</text>
  </g>
  <text x="55" y="88" fill="rgba(167,139,250,.65)" font-size="11" letter-spacing="2">HPLC / LC-MS GRADE GUIDE</text>
  <text x="55" y="132" fill="white" font-size="30" font-weight="700" font-family="DM Serif Display,serif">Acetonitrile (ACN)</text>
  <text x="55" y="156" fill="rgba(255,255,255,.42)" font-size="12">CH&#x2083;CN &#xB7; CAS 75-05-8 &#xB7; MW 41.05 &#xB7; BP 81.6&#xB0;C</text>
  <text x="55" y="192" fill="rgba(167,139,250,.48)" font-size="10" letter-spacing="1">UV ABSORBANCE LIMITS (AU)</text>
  <g transform="translate(55,204)">
    <text x="0" y="14" fill="rgba(255,255,255,.32)" font-size="9">Wavelength</text>
    <text x="130" y="14" fill="rgba(196,181,253,.55)" font-size="9">HPLC</text>
    <text x="210" y="14" fill="rgba(167,139,250,.75)" font-size="9">HPLC-G</text>
    <text x="298" y="14" fill="#A78BFA" font-size="9" font-weight="700">LC-MS</text>
    <line x1="0" y1="20" x2="380" y2="20" stroke="rgba(124,58,237,.28)" stroke-width="1"/>
    <text x="0" y="36" fill="rgba(255,255,255,.52)" font-size="10">200 nm</text><text x="130" y="36" fill="rgba(196,181,253,.55)" font-size="10">&#x2264;1.00</text><text x="210" y="36" fill="rgba(167,139,250,.78)" font-size="10">&#x2264;0.50</text><text x="298" y="36" fill="#A78BFA" font-size="10" font-weight="700">&#x2264;0.50</text>
    <line x1="0" y1="43" x2="380" y2="43" stroke="rgba(124,58,237,.14)" stroke-width="1"/>
    <text x="0" y="58" fill="rgba(255,255,255,.52)" font-size="10">210 nm</text><text x="130" y="58" fill="rgba(196,181,253,.55)" font-size="10">&#x2264;0.20</text><text x="210" y="58" fill="rgba(167,139,250,.78)" font-size="10">&#x2264;0.10</text><text x="298" y="58" fill="#A78BFA" font-size="10" font-weight="700">&#x2264;0.10</text>
    <line x1="0" y1="65" x2="380" y2="65" stroke="rgba(124,58,237,.14)" stroke-width="1"/>
    <text x="0" y="80" fill="rgba(255,255,255,.52)" font-size="10">230 nm</text><text x="130" y="80" fill="rgba(196,181,253,.55)" font-size="10">&#x2264;0.05</text><text x="210" y="80" fill="rgba(167,139,250,.78)" font-size="10">&#x2264;0.03</text><text x="298" y="80" fill="#A78BFA" font-size="10" font-weight="700">&#x2264;0.03</text>
    <line x1="0" y1="87" x2="380" y2="87" stroke="rgba(124,58,237,.14)" stroke-width="1"/>
    <text x="0" y="102" fill="rgba(255,255,255,.52)" font-size="10">254 nm</text><text x="130" y="102" fill="rgba(196,181,253,.55)" font-size="10">&#x2264;0.01</text><text x="210" y="102" fill="rgba(167,139,250,.78)" font-size="10">&#x2264;0.005</text><text x="298" y="102" fill="#A78BFA" font-size="10" font-weight="700">&#x2264;0.005</text>
  </g>
  <g transform="translate(55,360)">
    <rect width="385" height="44" rx="7" fill="rgba(124,58,237,.1)" stroke="rgba(124,58,237,.22)" stroke-width="1"/>
    <text x="14" y="17" fill="rgba(167,139,250,.65)" font-size="9" letter-spacing="1">KEY IMPURITY CONTROL</text>
    <text x="14" y="32" fill="rgba(255,255,255,.48)" font-size="9">Acrylonitrile &#x2264;1 ppm (GC-MS) &#xB7; Water &#x2264;30 ppm &#xB7; Propionitrile controlled</text>
  </g>
  <rect x="0" y="440" width="900" height="40" fill="rgba(0,0,0,.28)"/>
  <text x="55" y="466" fill="rgba(255,255,255,.32)" font-size="11">PureTech Materials &#xB7; Acetonitrile HPLC-P / HPLC-G / LC-MS / AR / GR</text>
  <text x="845" y="466" text-anchor="end" fill="rgba(167,139,250,.42)" font-size="11">puretechmaterials.com</text>
</svg>