<svg viewBox="0 0 900 480" xmlns="http://www.w3.org/2000/svg" font-family="Space Mono,monospace">
  <defs>
    <linearGradient id="bg" x1="0" y1="0" x2="1" y2="1"><stop offset="0%" stop-color="#040D1E"/><stop offset="100%" stop-color="#071A30"/></linearGradient>
    <linearGradient id="water" x1="0" y1="0" x2="0" y2="1"><stop offset="0%" stop-color="#0284C7" stop-opacity=".5"/><stop offset="100%" stop-color="#075985" stop-opacity=".8"/></linearGradient>
    <linearGradient id="ipa" x1="0" y1="0" x2="0" y2="1"><stop offset="0%" stop-color="#00C2FF" stop-opacity=".08"/><stop offset="100%" stop-color="#00C2FF" stop-opacity=".32"/></linearGradient>
    <radialGradient id="orb"><stop offset="0%" stop-color="#0099E8" stop-opacity=".18"/><stop offset="100%" stop-color="#0099E8" stop-opacity="0"/></radialGradient>
    <filter id="bl"><feGaussianBlur stdDeviation="18"/></filter>
    <marker id="arr" markerWidth="8" markerHeight="6" refX="8" refY="3" orient="auto"><polygon points="0 0,8 3,0 6" fill="#00C2FF" opacity=".75"/></marker>
  </defs>
  <rect width="900" height="480" fill="url(#bg)"/>
  <g stroke="rgba(0,102,204,.07)" stroke-width="1">
    <line x1="0" y1="80" x2="900" y2="80"/><line x1="0" y1="160" x2="900" y2="160"/><line x1="0" y1="240" x2="900" y2="240"/><line x1="0" y1="320" x2="900" y2="320"/><line x1="0" y1="400" x2="900" y2="400"/>
    <line x1="150" y1="0" x2="150" y2="480"/><line x1="300" y1="0" x2="300" y2="480"/><line x1="450" y1="0" x2="450" y2="480"/><line x1="600" y1="0" x2="600" y2="480"/><line x1="750" y1="0" x2="750" y2="480"/>
  </g>
  <ellipse cx="650" cy="200" rx="280" ry="220" fill="url(#orb)" filter="url(#bl)"/>
  <!-- Marangoni diagram -->
  <g transform="translate(462,48)">
    <text x="200" y="18" text-anchor="middle" fill="rgba(0,194,255,.62)" font-size="11" letter-spacing="2">MARANGONI DRYING MECHANISM</text>
    <rect x="0" y="295" width="400" height="68" rx="6" fill="url(#water)" stroke="rgba(2,132,199,.38)" stroke-width="1.5"/>
    <text x="200" y="334" text-anchor="middle" fill="rgba(255,255,255,.52)" font-size="11">Deionized Water Bath</text>
    <text x="200" y="350" text-anchor="middle" fill="rgba(56,189,248,.45)" font-size="9">Surface tension: 72 mN/m</text>
    <rect x="0" y="128" width="400" height="162" rx="4" fill="url(#ipa)" stroke="rgba(0,194,255,.18)" stroke-width="1" stroke-dasharray="5,4"/>
    <text x="200" y="152" text-anchor="middle" fill="rgba(0,194,255,.58)" font-size="10">IPA G5 Vapor Zone</text>
    <text x="200" y="166" text-anchor="middle" fill="rgba(255,255,255,.28)" font-size="9">Surface tension: 22 mN/m</text>
    <rect x="138" y="148" width="124" height="200" rx="4" fill="rgba(0,40,80,.7)" stroke="rgba(0,102,204,.58)" stroke-width="2"/>
    <rect x="140" y="150" width="120" height="88" rx="3" fill="rgba(0,80,160,.18)" stroke="rgba(0,194,255,.28)" stroke-width="1"/>
    <text x="200" y="192" text-anchor="middle" fill="#22D3FF" font-size="9" font-weight="700">DRY</text>
    <text x="200" y="205" text-anchor="middle" fill="rgba(255,255,255,.32)" font-size="8">Zero watermarks</text>
    <rect x="140" y="238" width="120" height="18" rx="2" fill="rgba(0,194,255,.22)" stroke="rgba(0,194,255,.48)" stroke-width="1"/>
    <text x="200" y="251" text-anchor="middle" fill="#00C2FF" font-size="8" font-weight="700">MENISCUS</text>
    <rect x="140" y="258" width="120" height="88" rx="2" fill="rgba(2,132,199,.28)" stroke="rgba(56,189,248,.28)" stroke-width="1"/>
    <text x="200" y="298" text-anchor="middle" fill="rgba(56,189,248,.55)" font-size="8">WET</text>
    <line x1="278" y1="278" x2="278" y2="162" stroke="rgba(0,194,255,.58)" stroke-width="2" marker-end="url(#arr)"/>
    <text x="292" y="228" fill="rgba(0,194,255,.55)" font-size="8">Slow</text>
    <text x="292" y="240" fill="rgba(0,194,255,.55)" font-size="8">Pull</text>
    <text x="292" y="252" fill="rgba(0,194,255,.55)" font-size="8">1&#x2013;10</text>
    <text x="292" y="264" fill="rgba(0,194,255,.55)" font-size="8">mm/s</text>
    <line x1="98" y1="253" x2="136" y2="253" stroke="#00C2FF" stroke-width="1.5" stroke-dasharray="3,2" marker-end="url(#arr)"/>
    <text x="42" y="250" fill="rgba(0,194,255,.65)" font-size="8">Marangoni</text>
    <text x="42" y="262" fill="rgba(0,194,255,.65)" font-size="8">flow &#x2192;</text>
    <line x1="302" y1="253" x2="264" y2="253" stroke="#00C2FF" stroke-width="1.5" stroke-dasharray="3,2" marker-end="url(#arr)"/>
    <text x="308" y="250" fill="rgba(0,194,255,.65)" font-size="8">&#x2190; flow</text>
    <rect x="8" y="88" width="68" height="26" rx="5" fill="rgba(0,60,120,.6)" stroke="rgba(0,102,204,.48)" stroke-width="1.5"/>
    <text x="42" y="105" text-anchor="middle" fill="#4BAAF5" font-size="9" font-weight="700">IPA G5</text>
    <line x1="42" y1="114" x2="42" y2="133" stroke="rgba(0,194,255,.45)" stroke-width="2"/>
    <rect x="324" y="88" width="68" height="26" rx="5" fill="rgba(0,60,120,.6)" stroke="rgba(0,102,204,.48)" stroke-width="1.5"/>
    <text x="358" y="105" text-anchor="middle" fill="#4BAAF5" font-size="9" font-weight="700">IPA G5</text>
    <line x1="358" y1="114" x2="358" y2="133" stroke="rgba(0,194,255,.45)" stroke-width="2"/>
  </g>
  <text x="55" y="88" fill="rgba(0,194,255,.62)" font-size="11" letter-spacing="2">WAFER DRYING TECHNOLOGY</text>
  <text x="55" y="132" fill="white" font-size="26" font-weight="700" font-family="DM Serif Display,serif">Marangoni Drying</text>
  <text x="55" y="156" fill="rgba(255,255,255,.42)" font-size="12">IPA G5 Vapor &#xB7; Stiction-Free</text>
  <text x="55" y="192" fill="rgba(0,194,255,.45)" font-size="10" letter-spacing="1">WHY G5 IPA IS REQUIRED</text>
  <g transform="translate(55,205)">
    <rect width="376" height="24" rx="4" fill="rgba(0,102,204,.12)" stroke="rgba(0,102,204,.25)" stroke-width="1"/>
    <text x="12" y="16" fill="rgba(255,255,255,.62)" font-size="10">Water &#x2264;5 ppm</text><text x="170" y="16" fill="rgba(0,194,255,.68)" font-size="10">Maintains surface tension gradient</text>
    <rect y="28" width="376" height="24" rx="4" fill="rgba(0,102,204,.1)" stroke="rgba(0,102,204,.2)" stroke-width="1"/>
    <text x="12" y="44" fill="rgba(255,255,255,.62)" font-size="10">Acetone &#x2264;1 ppm</text><text x="170" y="44" fill="rgba(0,194,255,.68)" font-size="10">Prevents Marangoni instability</text>
    <rect y="56" width="376" height="24" rx="4" fill="rgba(0,102,204,.1)" stroke="rgba(0,102,204,.2)" stroke-width="1"/>
    <text x="12" y="72" fill="rgba(255,255,255,.62)" font-size="10">Metals &lt;0.1 ppb</text><text x="170" y="72" fill="rgba(0,194,255,.68)" font-size="10">Prevents surface metal deposition</text>
    <rect y="84" width="376" height="24" rx="4" fill="rgba(0,102,204,.1)" stroke="rgba(0,102,204,.2)" stroke-width="1"/>
    <text x="12" y="100" fill="rgba(255,255,255,.62)" font-size="10">Particles &#x2264;5 ct/mL</text><text x="170" y="100" fill="rgba(0,194,255,.68)" font-size="10">Zero redeposition on wafer</text>
  </g>
  <text x="55" y="340" fill="rgba(0,194,255,.45)" font-size="10" letter-spacing="1">PERFORMANCE VS SPIN-DRY</text>
  <g transform="translate(55,354)">
    <rect width="180" height="54" rx="7" fill="rgba(0,102,204,.15)" stroke="rgba(0,102,204,.32)" stroke-width="1.5"/>
    <text x="90" y="22" text-anchor="middle" fill="#22D3FF" font-size="14" font-weight="700">0</text>
    <text x="90" y="36" text-anchor="middle" fill="rgba(255,255,255,.45)" font-size="9">Watermarks</text>
    <text x="90" y="48" text-anchor="middle" fill="rgba(255,255,255,.28)" font-size="8">Marangoni drying</text>
    <rect x="192" width="180" height="54" rx="7" fill="rgba(71,85,105,.12)" stroke="rgba(71,85,105,.28)" stroke-width="1"/>
    <text x="282" y="22" text-anchor="middle" fill="rgba(255,255,255,.42)" font-size="14" font-weight="700">Many</text>
    <text x="282" y="36" text-anchor="middle" fill="rgba(255,255,255,.38)" font-size="9">Watermarks</text>
    <text x="282" y="48" text-anchor="middle" fill="rgba(255,255,255,.22)" font-size="8">Conventional spin-dry</text>
  </g>
  <rect x="0" y="440" width="900" height="40" fill="rgba(0,0,0,.28)"/>
  <text x="55" y="466" fill="rgba(255,255,255,.32)" font-size="11">PureTech Materials &#xB7; Electronic Grade IPA G5 &#xB7; SEMI C1 Tier D &#xB7; Marangoni Applications</text>
  <text x="845" y="466" text-anchor="end" fill="rgba(0,194,255,.42)" font-size="11">puretechmaterials.com</text>
</svg>