<svg viewBox="0 0 900 480" xmlns="http://www.w3.org/2000/svg" font-family="Space Mono,monospace">
  <defs>
    <linearGradient id="bg" x1="0" y1="0" x2="1" y2="1"><stop offset="0%" stop-color="#0A1200"/><stop offset="100%" stop-color="#0A2010"/></linearGradient>
    <linearGradient id="bar" x1="0" y1="0" x2="1" y2="0"><stop offset="0%" stop-color="#16A34A"/><stop offset="100%" stop-color="#4ADE80"/></linearGradient>
    <linearGradient id="cat" x1="0" y1="0" x2="0" y2="1"><stop offset="0%" stop-color="#16A34A" stop-opacity=".4"/><stop offset="100%" stop-color="#052E16" stop-opacity=".8"/></linearGradient>
    <radialGradient id="orb"><stop offset="0%" stop-color="#16A34A" stop-opacity=".22"/><stop offset="100%" stop-color="#16A34A" stop-opacity="0"/></radialGradient>
    <filter id="bl"><feGaussianBlur stdDeviation="20"/></filter>
  </defs>
  <rect width="900" height="480" fill="url(#bg)"/>
  <g stroke="rgba(22,163,74,.07)" stroke-width="1">
    <line x1="0" y1="80" x2="900" y2="80"/><line x1="0" y1="160" x2="900" y2="160"/><line x1="0" y1="240" x2="900" y2="240"/><line x1="0" y1="320" x2="900" y2="320"/><line x1="0" y1="400" x2="900" y2="400"/>
    <line x1="150" y1="0" x2="150" y2="480"/><line x1="300" y1="0" x2="300" y2="480"/><line x1="450" y1="0" x2="450" y2="480"/><line x1="600" y1="0" x2="600" y2="480"/><line x1="750" y1="0" x2="750" y2="480"/>
  </g>
  <ellipse cx="670" cy="240" rx="270" ry="220" fill="url(#orb)" filter="url(#bl)"/>
  <g transform="translate(530,55)">
    <rect x="0" y="295" width="300" height="65" rx="6" fill="rgba(2,46,22,.7)" stroke="rgba(22,163,74,.3)" stroke-width="1.5"/>
    <text x="150" y="330" text-anchor="middle" fill="rgba(255,255,255,.45)" font-size="10">Organic Substrate</text>
    <rect x="20" y="250" width="260" height="38" rx="4" fill="rgba(22,163,74,.18)" stroke="rgba(22,163,74,.45)" stroke-width="1.5"/>
    <text x="150" y="272" text-anchor="middle" fill="#4ADE80" font-size="11" font-weight="700">NMC-811 Cathode</text>
    <text x="150" y="284" text-anchor="middle" fill="rgba(255,255,255,.35)" font-size="8">PVDF binder + NMP slurry &#x2192; Al foil</text>
    <rect x="20" y="230" width="260" height="18" rx="2" fill="rgba(255,255,255,.05)" stroke="rgba(255,255,255,.18)" stroke-width="1"/>
    <text x="150" y="243" text-anchor="middle" fill="rgba(255,255,255,.42)" font-size="8">PE Separator · EC/DMC/EMC + LiPF&#x2086;</text>
    <rect x="20" y="178" width="260" height="48" rx="4" fill="rgba(22,163,74,.08)" stroke="rgba(22,163,74,.28)" stroke-width="1"/>
    <text x="150" y="200" text-anchor="middle" fill="rgba(74,222,128,.65)" font-size="11" font-weight="700">Graphite Anode</text>
    <text x="150" y="214" text-anchor="middle" fill="rgba(255,255,255,.3)" font-size="8">SBR/CMC binder &#x2192; Cu foil</text>
    <text x="150" y="162" text-anchor="middle" fill="rgba(22,163,74,.4)" font-size="20">&#x22EE;</text>
    <text x="150" y="152" text-anchor="middle" fill="rgba(255,255,255,.18)" font-size="8">~30-50 layer pairs</text>
    <rect x="110" y="-12" width="80" height="14" rx="4" fill="rgba(22,163,74,.45)" stroke="rgba(22,163,74,.65)" stroke-width="1.5"/>
    <text x="150" y="-1" text-anchor="middle" fill="white" font-size="8" font-weight="700">+ Terminal</text>
    <rect x="110" y="360" width="80" height="14" rx="4" fill="rgba(22,163,74,.2)" stroke="rgba(22,163,74,.35)" stroke-width="1"/>
    <text x="150" y="371" text-anchor="middle" fill="rgba(255,255,255,.35)" font-size="8">&#x2212; Terminal</text>
    <line x1="285" y1="268" x2="330" y2="268" stroke="rgba(74,222,128,.45)" stroke-width="1.5" stroke-dasharray="4,3"/>
    <text x="334" y="264" fill="#4ADE80" font-size="10" font-weight="700">NMP G5</text>
    <text x="334" y="277" fill="rgba(255,255,255,.3)" font-size="8">PVDF dissolution</text>
    <g transform="translate(20,100)">
      <rect width="78" height="42" rx="5" fill="rgba(22,163,74,.12)" stroke="rgba(22,163,74,.28)" stroke-width="1"/>
      <text x="39" y="19" text-anchor="middle" fill="#4ADE80" font-size="15" font-weight="700">G5</text>
      <text x="39" y="33" text-anchor="middle" fill="rgba(255,255,255,.35)" font-size="7">NMP grade</text>
      <rect x="87" width="78" height="42" rx="5" fill="rgba(22,163,74,.12)" stroke="rgba(22,163,74,.28)" stroke-width="1"/>
      <text x="126" y="19" text-anchor="middle" fill="#4ADE80" font-size="15" font-weight="700">&#x2264;20</text>
      <text x="126" y="33" text-anchor="middle" fill="rgba(255,255,255,.35)" font-size="7">ppm H&#x2082;O</text>
      <rect x="174" width="78" height="42" rx="5" fill="rgba(22,163,74,.12)" stroke="rgba(22,163,74,.28)" stroke-width="1"/>
      <text x="213" y="19" text-anchor="middle" fill="#4ADE80" font-size="13" font-weight="700">&lt;0.05</text>
      <text x="213" y="33" text-anchor="middle" fill="rgba(255,255,255,.35)" font-size="7">ppb Fe/Ni</text>
    </g>
  </g>
  <text x="55" y="88" fill="rgba(74,222,128,.65)" font-size="11" letter-spacing="2">BATTERY ELECTRODE CHEMISTRY</text>
  <text x="55" y="132" fill="white" font-size="34" font-weight="700" font-family="DM Serif Display,serif">NMP</text>
  <text x="55" y="158" fill="rgba(255,255,255,.42)" font-size="12">N-Methyl-2-pyrrolidone &#xB7; CAS 872-50-4</text>
  <text x="55" y="176" fill="rgba(255,255,255,.28)" font-size="11">MW 99.13 &#xB7; BP 202&#xB0;C &#xB7; 1.028 g/mL</text>
  <text x="55" y="212" fill="rgba(74,222,128,.45)" font-size="10" letter-spacing="1">CATHODE SLURRY PROCESS</text>
  <g transform="translate(55,225)">
    <circle cx="11" cy="11" r="10" fill="rgba(22,163,74,.2)" stroke="rgba(22,163,74,.45)" stroke-width="1.5"/>
    <text x="11" y="15" text-anchor="middle" fill="#4ADE80" font-size="11" font-weight="700">1</text>
    <text x="30" y="10" fill="rgba(255,255,255,.65)" font-size="11" font-weight="600">PVDF Dissolution</text>
    <text x="30" y="23" fill="rgba(255,255,255,.32)" font-size="9">PVDF + NMP G5, 60&#x2013;80&#xB0;C, 4&#x2013;8h</text>
    <circle cx="11" cy="55" r="10" fill="rgba(22,163,74,.2)" stroke="rgba(22,163,74,.45)" stroke-width="1.5"/>
    <text x="11" y="59" text-anchor="middle" fill="#4ADE80" font-size="11" font-weight="700">2</text>
    <text x="30" y="54" fill="rgba(255,255,255,.65)" font-size="11" font-weight="600">Carbon Dispersion</text>
    <text x="30" y="67" fill="rgba(255,255,255,.32)" font-size="9">Super P + CNT under high shear</text>
    <circle cx="11" cy="99" r="10" fill="rgba(22,163,74,.2)" stroke="rgba(22,163,74,.45)" stroke-width="1.5"/>
    <text x="11" y="103" text-anchor="middle" fill="#4ADE80" font-size="11" font-weight="700">3</text>
    <text x="30" y="98" fill="rgba(255,255,255,.65)" font-size="11" font-weight="600">NMC-811 / LFP Active Material</text>
    <text x="30" y="111" fill="rgba(255,255,255,.32)" font-size="9">Viscosity 3,000&#x2013;8,000 mPa&#xB7;s target</text>
    <circle cx="11" cy="143" r="10" fill="rgba(22,163,74,.2)" stroke="rgba(22,163,74,.45)" stroke-width="1.5"/>
    <text x="11" y="147" text-anchor="middle" fill="#4ADE80" font-size="11" font-weight="700">4</text>
    <text x="30" y="142" fill="rgba(255,255,255,.65)" font-size="11" font-weight="600">Coat, Dry &amp; Recover NMP</text>
    <text x="30" y="155" fill="rgba(255,255,255,.32)" font-size="9">Blade coat Al foil &#xB7; 90&#x2013;95% NMP recovery</text>
  </g>
  <rect x="0" y="440" width="900" height="40" fill="rgba(0,0,0,.32)"/>
  <text x="55" y="466" fill="rgba(255,255,255,.32)" font-size="11">PureTech Materials &#xB7; NMP G4/G5 &#xB7; EV Battery Supply &#xB7; Fe/Ni &lt;0.05 ppb</text>
  <text x="845" y="466" text-anchor="end" fill="rgba(74,222,128,.42)" font-size="11">puretechmaterials.com</text>
</svg>