<svg viewBox="0 0 900 480" xmlns="http://www.w3.org/2000/svg" font-family="Space Mono,monospace">
  <defs>
    <linearGradient id="bg" x1="0" y1="0" x2="1" y2="1"><stop offset="0%" stop-color="#0A0420"/><stop offset="100%" stop-color="#1A0A40"/></linearGradient>
    <linearGradient id="bar" x1="0" y1="0" x2="1" y2="0"><stop offset="0%" stop-color="#7C3AED"/><stop offset="100%" stop-color="#C4B5FD"/></linearGradient>
    <radialGradient id="orb"><stop offset="0%" stop-color="#7C3AED" stop-opacity=".3"/><stop offset="100%" stop-color="#7C3AED" stop-opacity="0"/></radialGradient>
    <filter id="bl"><feGaussianBlur stdDeviation="22"/></filter>
  </defs>
  <rect width="900" height="480" fill="url(#bg)"/>
  <g stroke="rgba(124,58,237,.08)" stroke-width="1">
    <line x1="0" y1="80" x2="900" y2="80"/><line x1="0" y1="160" x2="900" y2="160"/><line x1="0" y1="240" x2="900" y2="240"/><line x1="0" y1="320" x2="900" y2="320"/><line x1="0" y1="400" x2="900" y2="400"/>
    <line x1="180" y1="0" x2="180" y2="480"/><line x1="360" y1="0" x2="360" y2="480"/><line x1="540" y1="0" x2="540" y2="480"/><line x1="720" y1="0" x2="720" y2="480"/>
  </g>
  <ellipse cx="660" cy="240" rx="280" ry="240" fill="url(#orb)" filter="url(#bl)"/>
  <g transform="translate(560,90)">
    <path d="M120,0 L100,38 L140,38 Z" fill="rgba(196,181,253,.55)"/>
    <line x1="120" y1="38" x2="120" y2="58" stroke="rgba(196,181,253,.45)" stroke-width="2"/>
    <rect x="60" y="58" width="120" height="18" rx="3" fill="rgba(124,58,237,.35)" stroke="rgba(196,181,253,.5)" stroke-width="1"/>
    <text x="120" y="71" text-anchor="middle" fill="rgba(255,255,255,.65)" font-size="9">EUV MASK</text>
    <rect x="30" y="98" width="180" height="14" rx="2" fill="rgba(196,181,253,.12)" stroke="rgba(196,181,253,.28)" stroke-width="1"/>
    <text x="120" y="109" text-anchor="middle" fill="rgba(196,181,253,.55)" font-size="8">Topcoat / TARC</text>
    <rect x="30" y="114" width="180" height="24" rx="2" fill="rgba(124,58,237,.22)" stroke="rgba(124,58,237,.6)" stroke-width="1.5"/>
    <text x="120" y="130" text-anchor="middle" fill="#C4B5FD" font-size="9" font-weight="700">EUV CAR Photoresist</text>
    <rect x="30" y="140" width="180" height="14" rx="2" fill="rgba(96,40,200,.18)" stroke="rgba(124,58,237,.35)" stroke-width="1"/>
    <text x="120" y="151" text-anchor="middle" fill="rgba(196,181,253,.45)" font-size="8">BARC / ARC</text>
    <rect x="20" y="156" width="200" height="26" rx="3" fill="rgba(0,0,0,.4)" stroke="rgba(255,255,255,.12)" stroke-width="1"/>
    <text x="120" y="173" text-anchor="middle" fill="rgba(255,255,255,.38)" font-size="9">Silicon Substrate</text>
    <line x1="215" y1="126" x2="270" y2="126" stroke="rgba(196,181,253,.45)" stroke-width="1.5" stroke-dasharray="4,3"/>
    <text x="274" y="122" fill="#C4B5FD" font-size="10" font-weight="700">PGMEA</text>
    <text x="274" y="135" fill="rgba(255,255,255,.38)" font-size="8">Primary Solvent</text>
    <line x1="215" y1="151" x2="270" y2="151" stroke="rgba(196,181,253,.3)" stroke-width="1" stroke-dasharray="3,3"/>
    <text x="274" y="148" fill="rgba(196,181,253,.6)" font-size="9">PGME / PGMEA</text>
    <text x="274" y="160" fill="rgba(255,255,255,.28)" font-size="8">EBR Solvent</text>
  </g>
  <text x="55" y="88" fill="rgba(196,181,253,.65)" font-size="11" letter-spacing="2">PHOTORESIST SOLVENT</text>
  <text x="55" y="132" fill="white" font-size="32" font-weight="700" font-family="DM Serif Display,serif">PGMEA</text>
  <text x="55" y="160" fill="rgba(255,255,255,.42)" font-size="13">CAS 108-65-6 &#xB7; BP 146&#xB0;C &#xB7; MW 132.16</text>
  <g transform="translate(55,188)">
    <text fill="rgba(196,181,253,.55)" font-size="10" letter-spacing="1">NODE COMPATIBILITY</text>
    <rect y="14" width="62" height="20" rx="4" fill="rgba(124,58,237,.15)" stroke="rgba(124,58,237,.28)" stroke-width="1"/>
    <text x="31" y="28" text-anchor="middle" fill="rgba(196,181,253,.45)" font-size="8">G-line</text>
    <rect x="68" y="14" width="62" height="20" rx="4" fill="rgba(124,58,237,.22)" stroke="rgba(124,58,237,.35)" stroke-width="1"/>
    <text x="99" y="28" text-anchor="middle" fill="rgba(196,181,253,.55)" font-size="8">I-line</text>
    <rect x="136" y="14" width="62" height="20" rx="4" fill="rgba(124,58,237,.3)" stroke="rgba(124,58,237,.42)" stroke-width="1"/>
    <text x="167" y="28" text-anchor="middle" fill="rgba(196,181,253,.7)" font-size="8">KrF 248nm</text>
    <rect x="204" y="14" width="62" height="20" rx="4" fill="rgba(124,58,237,.4)" stroke="rgba(124,58,237,.5)" stroke-width="1"/>
    <text x="235" y="28" text-anchor="middle" fill="#C4B5FD" font-size="8">ArF 193nm</text>
    <rect x="272" y="14" width="68" height="20" rx="4" fill="rgba(124,58,237,.5)" stroke="rgba(124,58,237,.62)" stroke-width="1.5"/>
    <text x="306" y="28" text-anchor="middle" fill="white" font-size="8" font-weight="700">ArF Imm.</text>
    <rect x="346" y="14" width="68" height="20" rx="10" fill="#7C3AED"/>
    <text x="380" y="28" text-anchor="middle" fill="white" font-size="8" font-weight="700">EUV 13.5nm</text>
  </g>
  <g transform="translate(55,248)">
    <rect width="440" height="108" rx="8" fill="rgba(0,0,0,.3)" stroke="rgba(124,58,237,.2)" stroke-width="1"/>
    <rect width="440" height="24" rx="8" fill="rgba(124,58,237,.18)"/>
    <rect x="0" y="14" width="440" height="10" fill="rgba(124,58,237,.18)"/>
    <text x="14" y="16" fill="rgba(255,255,255,.5)" font-size="9" letter-spacing="1">PARAMETER</text>
    <text x="200" y="16" fill="rgba(255,255,255,.5)" font-size="9">METHOD</text>
    <text x="298" y="16" fill="#C4B5FD" font-size="9" font-weight="700">G4</text>
    <text x="378" y="16" fill="#A78BFA" font-size="9" font-weight="700">G5</text>
    <text x="14" y="40" fill="rgba(255,255,255,.58)" font-size="10">Assay (GC)</text><text x="200" y="40" fill="rgba(255,255,255,.32)" font-size="10">GC-FID</text><text x="298" y="40" fill="#C4B5FD" font-size="10">&#x2265;99.99%</text><text x="378" y="40" fill="#A78BFA" font-size="10" font-weight="700">&#x2265;99.999%</text>
    <line x1="8" y1="48" x2="432" y2="48" stroke="rgba(124,58,237,.14)" stroke-width="1"/>
    <text x="14" y="62" fill="rgba(255,255,255,.58)" font-size="10">Water (KF)</text><text x="200" y="62" fill="rgba(255,255,255,.32)" font-size="10">Karl Fischer</text><text x="298" y="62" fill="#C4B5FD" font-size="10">&#x2264;30 ppm</text><text x="378" y="62" fill="#A78BFA" font-size="10" font-weight="700">&#x2264;10 ppm</text>
    <line x1="8" y1="70" x2="432" y2="70" stroke="rgba(124,58,237,.14)" stroke-width="1"/>
    <text x="14" y="84" fill="rgba(255,255,255,.58)" font-size="10">Total Metals</text><text x="200" y="84" fill="rgba(255,255,255,.32)" font-size="10">ICP-MS</text><text x="298" y="84" fill="#C4B5FD" font-size="10">&#x2264;0.5 ppb ea.</text><text x="378" y="84" fill="#A78BFA" font-size="10" font-weight="700">&lt;0.1 ppb ea.</text>
    <line x1="8" y1="92" x2="432" y2="92" stroke="rgba(124,58,237,.14)" stroke-width="1"/>
    <text x="14" y="106" fill="rgba(255,255,255,.58)" font-size="10">Peroxide</text><text x="200" y="106" fill="rgba(255,255,255,.32)" font-size="10">Iodometric</text><text x="298" y="106" fill="#C4B5FD" font-size="10">&#x2264;1 ppm</text><text x="378" y="106" fill="#A78BFA" font-size="10" font-weight="700">&#x2264;0.5 ppm</text>
  </g>
  <rect x="0" y="440" width="900" height="40" fill="rgba(0,0,0,.3)"/>
  <text x="55" y="466" fill="rgba(255,255,255,.32)" font-size="11">PureTech Materials &#xB7; SEMI C12 Certified &#xB7; EUV / ArF Immersion Compatible</text>
  <text x="845" y="466" text-anchor="end" fill="rgba(196,181,253,.45)" font-size="11">puretechmaterials.com</text>
</svg>