<svg viewBox="0 0 900 480" xmlns="http://www.w3.org/2000/svg" font-family="Space Mono,monospace">
  <defs>
    <linearGradient id="bg" x1="0" y1="0" x2="1" y2="1"><stop offset="0%" stop-color="#020810"/><stop offset="100%" stop-color="#040D1E"/></linearGradient>
    <radialGradient id="orb"><stop offset="0%" stop-color="#0066CC" stop-opacity=".18"/><stop offset="100%" stop-color="#0066CC" stop-opacity="0"/></radialGradient>
    <filter id="bl"><feGaussianBlur stdDeviation="20"/></filter>
  </defs>
  <rect width="900" height="480" fill="url(#bg)"/>
  <g stroke="rgba(0,102,204,.07)" stroke-width="1">
    <line x1="0" y1="80" x2="900" y2="80"/><line x1="0" y1="160" x2="900" y2="160"/><line x1="0" y1="240" x2="900" y2="240"/><line x1="0" y1="320" x2="900" y2="320"/><line x1="0" y1="400" x2="900" y2="400"/>
    <line x1="150" y1="0" x2="150" y2="480"/><line x1="300" y1="0" x2="300" y2="480"/><line x1="450" y1="0" x2="450" y2="480"/><line x1="600" y1="0" x2="600" y2="480"/><line x1="750" y1="0" x2="750" y2="480"/>
  </g>
  <ellipse cx="700" cy="200" rx="300" ry="240" fill="url(#orb)" filter="url(#bl)"/>
  <!-- Grade bar chart -->
  <g transform="translate(462,42)">
    <text x="210" y="18" text-anchor="middle" fill="rgba(75,170,245,.65)" font-size="11" letter-spacing="2">SEMI C1 PURITY TIER COMPARISON</text>
    <rect x="20" y="32" width="380" height="278" rx="7" fill="rgba(0,0,0,.28)" stroke="rgba(0,102,204,.14)" stroke-width="1"/>
    <g stroke="rgba(0,102,204,.08)" stroke-width="1">
      <line x1="60" y1="52" x2="380" y2="52"/><line x1="60" y1="97" x2="380" y2="97"/>
      <line x1="60" y1="142" x2="380" y2="142"/><line x1="60" y1="187" x2="380" y2="187"/><line x1="60" y1="232" x2="380" y2="232"/>
    </g>
    <line x1="60" y1="275" x2="380" y2="275" stroke="rgba(255,255,255,.18)" stroke-width="1.5"/>
    <line x1="60" y1="48" x2="60" y2="275" stroke="rgba(255,255,255,.18)" stroke-width="1.5"/>
    <text x="52" y="56" text-anchor="end" fill="rgba(255,255,255,.28)" font-size="7">6N</text>
    <text x="52" y="101" text-anchor="end" fill="rgba(255,255,255,.28)" font-size="7">5N</text>
    <text x="52" y="146" text-anchor="end" fill="rgba(255,255,255,.28)" font-size="7">4N</text>
    <text x="52" y="191" text-anchor="end" fill="rgba(255,255,255,.28)" font-size="7">3N</text>
    <text x="52" y="236" text-anchor="end" fill="rgba(255,255,255,.28)" font-size="7">2N</text>
    <rect x="74" y="208" width="54" height="67" rx="3" fill="rgba(0,61,165,.35)" stroke="#003DA5" stroke-width="1.5"/>
    <text x="101" y="204" text-anchor="middle" fill="#93CAFD" font-size="11" font-weight="700">G2</text>
    <text x="101" y="285" text-anchor="middle" fill="rgba(255,255,255,.38)" font-size="7">99.9%</text>
    <text x="101" y="295" text-anchor="middle" fill="rgba(255,255,255,.25)" font-size="6">&#x2264;10 ppb</text>
    <rect x="144" y="163" width="54" height="112" rx="3" fill="rgba(0,80,200,.42)" stroke="#0050C8" stroke-width="1.5"/>
    <text x="171" y="159" text-anchor="middle" fill="#4BAAF5" font-size="11" font-weight="700">G3</text>
    <text x="171" y="285" text-anchor="middle" fill="rgba(255,255,255,.38)" font-size="7">99.99%</text>
    <text x="171" y="295" text-anchor="middle" fill="rgba(255,255,255,.25)" font-size="6">&#x2264;2 ppb</text>
    <rect x="214" y="118" width="54" height="157" rx="3" fill="rgba(0,102,204,.5)" stroke="#0066CC" stroke-width="1.5"/>
    <text x="241" y="114" text-anchor="middle" fill="#22D3FF" font-size="11" font-weight="700">G4</text>
    <text x="241" y="285" text-anchor="middle" fill="rgba(255,255,255,.38)" font-size="7">99.999%</text>
    <text x="241" y="295" text-anchor="middle" fill="rgba(255,255,255,.25)" font-size="6">&#x2264;0.5 ppb</text>
    <rect x="284" y="52" width="54" height="223" rx="3" fill="rgba(0,153,232,.65)" stroke="#0099E8" stroke-width="2"/>
    <text x="311" y="48" text-anchor="middle" fill="white" font-size="11" font-weight="700">G5</text>
    <rect x="296" y="33" width="30" height="15" rx="7" fill="#0099E8"/>
    <text x="311" y="44" text-anchor="middle" fill="white" font-size="7" font-weight="700">6N</text>
    <text x="311" y="285" text-anchor="middle" fill="rgba(255,255,255,.48)" font-size="7">99.9999%</text>
    <text x="311" y="295" text-anchor="middle" fill="rgba(255,255,255,.28)" font-size="6">&lt;0.1 ppb</text>
    <text x="101" y="308" text-anchor="middle" fill="rgba(255,255,255,.2)" font-size="6">180nm+</text>
    <text x="171" y="308" text-anchor="middle" fill="rgba(255,255,255,.2)" font-size="6">45&#x2013;180nm</text>
    <text x="241" y="308" text-anchor="middle" fill="rgba(255,255,255,.2)" font-size="6">7&#x2013;45nm</text>
    <text x="311" y="308" text-anchor="middle" fill="rgba(255,255,255,.2)" font-size="6">&lt;7nm/EUV</text>
  </g>
  <text x="55" y="88" fill="rgba(75,170,245,.58)" font-size="11" letter-spacing="2">INDUSTRY STANDARD REFERENCE</text>
  <text x="55" y="132" fill="white" font-size="28" font-weight="700" font-family="DM Serif Display,serif">SEMI C1 Standard</text>
  <text x="55" y="156" fill="rgba(255,255,255,.4)" font-size="12">Electronic Grade Tier System</text>
  <text x="55" y="194" fill="rgba(75,170,245,.45)" font-size="10" letter-spacing="1">TIER REQUIREMENTS</text>
  <g transform="translate(55,206)">
    <rect width="376" height="22" rx="4" fill="rgba(0,102,204,.18)"/>
    <text x="10" y="15" fill="rgba(255,255,255,.45)" font-size="8">Tier/Grade</text><text x="115" y="15" fill="rgba(255,255,255,.45)" font-size="8">Metals (ICP-MS)</text><text x="228" y="15" fill="rgba(255,255,255,.45)" font-size="8">Particles</text><text x="318" y="15" fill="rgba(255,255,255,.45)" font-size="8">Water</text>
    <rect y="26" width="376" height="20" rx="3" fill="rgba(0,61,165,.12)" stroke="rgba(0,61,165,.22)" stroke-width="1"/>
    <text x="10" y="40" fill="#93CAFD" font-size="9" font-weight="700">Tier A &#xB7; G2</text><text x="115" y="40" fill="rgba(255,255,255,.52)" font-size="9">&#x2264;10 ppb ea.</text><text x="228" y="40" fill="rgba(255,255,255,.52)" font-size="9">&#x2264;100/mL</text><text x="318" y="40" fill="rgba(255,255,255,.52)" font-size="9">&#x2264;50 ppm</text>
    <rect y="50" width="376" height="20" rx="3" fill="rgba(0,80,200,.12)" stroke="rgba(0,80,200,.2)" stroke-width="1"/>
    <text x="10" y="64" fill="#4BAAF5" font-size="9" font-weight="700">Tier B &#xB7; G3</text><text x="115" y="64" fill="rgba(255,255,255,.52)" font-size="9">&#x2264;2 ppb ea.</text><text x="228" y="64" fill="rgba(255,255,255,.52)" font-size="9">&#x2264;20/mL</text><text x="318" y="64" fill="rgba(255,255,255,.52)" font-size="9">&#x2264;20 ppm</text>
    <rect y="74" width="376" height="20" rx="3" fill="rgba(0,102,204,.15)" stroke="rgba(0,102,204,.26)" stroke-width="1"/>
    <text x="10" y="88" fill="#22D3FF" font-size="9" font-weight="700">Tier C &#xB7; G4</text><text x="115" y="88" fill="rgba(255,255,255,.62)" font-size="9">&#x2264;0.5 ppb ea.</text><text x="228" y="88" fill="rgba(255,255,255,.62)" font-size="9">&#x2264;10/mL</text><text x="318" y="88" fill="rgba(255,255,255,.62)" font-size="9">&#x2264;10 ppm</text>
    <rect y="98" width="376" height="22" rx="3" fill="rgba(0,153,232,.18)" stroke="rgba(0,153,232,.42)" stroke-width="1.5"/>
    <text x="10" y="113" fill="white" font-size="9" font-weight="700">Tier D &#xB7; G5 &#x2605;</text><text x="115" y="113" fill="white" font-size="9" font-weight="700">&lt;0.1 ppb ea.</text><text x="228" y="113" fill="white" font-size="9" font-weight="700">&#x2264;5/mL</text><text x="318" y="113" fill="white" font-size="9" font-weight="700">&#x2264;5 ppm</text>
  </g>
  <g transform="translate(55,360)">
    <rect width="376" height="42" rx="7" fill="rgba(0,102,204,.1)" stroke="rgba(0,102,204,.2)" stroke-width="1"/>
    <text x="12" y="16" fill="rgba(75,170,245,.65)" font-size="9" letter-spacing="1">CoA MUST INCLUDE:</text>
    <text x="12" y="30" fill="rgba(255,255,255,.45)" font-size="9">Individual ICP-MS data &#xB7; LPC counts &#xB7; KF water &#xB7; GC assay &#xB7; Instrument serial numbers</text>
  </g>
  <rect x="0" y="440" width="900" height="40" fill="rgba(0,0,0,.28)"/>
  <text x="55" y="466" fill="rgba(255,255,255,.32)" font-size="11">PureTech Materials &#xB7; SEMI C1 Tier D (G5) &#xB7; Full CoA per Lot &#xB7; ISO Class 3 Fill</text>
  <text x="845" y="466" text-anchor="end" fill="rgba(75,170,245,.42)" font-size="11">puretechmaterials.com</text>
</svg>